<svg version="1.1" viewBox="0.0 0.0 835.8976377952756 516.4330708661417" fill="none" stroke="none" stroke-linecap="square" stroke-miterlimit="10" xmlns:xlink="http://www.w3.org/1999/xlink" xmlns="http://www.w3.org/2000/svg"><clipPath id="p.0"><path d="m0 0l835.89764 0l0 516.43304l-835.89764 0l0 -516.43304z" clip-rule="nonzero"/></clipPath><g clip-path="url(#p.0)"><path fill="#000000" fill-opacity="0.0" d="m0 0l835.89764 0l0 516.43304l-835.89764 0z" fill-rule="evenodd"/><path fill="#fff3c4" d="m517.84265 143.2769l63.40155 0l0 228.66142l-63.40155 0z" fill-rule="evenodd"/><path fill="#fff3c4" d="m517.84265 345.63077l145.98425 0l0 27.527557l-145.98425 0z" fill-rule="evenodd"/><path fill="#fff3c4" d="m25.055223 143.8819l63.401573 0l0 228.6614l-63.401573 0z" fill-rule="evenodd"/><path fill="#fff3c4" d="m25.055223 143.8819l145.98425 0l0 27.527557l-145.98425 0z" fill-rule="evenodd"/><path fill="#fff3c4" d="m25.055223 232.1045l145.98425 0l0 27.527573l-145.98425 0z" fill-rule="evenodd"/><path fill="#fff3c4" d="m171.03937 143.9511l0 228.53542l-25.417328 0l0 -228.53542z" fill-rule="evenodd"/><path fill="#fff3c4" d="m190.47256 143.94489l63.401566 0l0 228.53543l-63.401566 0z" fill-rule="evenodd"/><path fill="#fff3c4" d="m190.47256 143.94489l145.98425 0l0 27.496063l-145.98425 0z" fill-rule="evenodd"/><path fill="#fff3c4" d="m336.45682 143.956l0 143.18109l-28.062988 0l0 -143.18109z" fill-rule="evenodd"/><path fill="#fff3c4" d="m190.47256 259.62415l145.98425 0l0 27.496063l-145.98425 0z" fill-rule="evenodd"/><path fill="#fff3c4" d="m354.1576 143.94489l63.40158 0l0 228.53543l-63.40158 0z" fill-rule="evenodd"/><path fill="#fff3c4" d="m354.1576 143.94489l145.98425 0l0 27.496063l-145.98425 0z" fill-rule="evenodd"/><path fill="#fff3c4" d="m500.14185 143.956l0 143.18109l-28.062988 0l0 -143.18109z" fill-rule="evenodd"/><path fill="#fff3c4" d="m354.1576 259.62415l145.98425 0l0 27.496063l-145.98425 0z" fill-rule="evenodd"/><path fill="#fff3c4" d="m692.92194 244.5198l54.2677 0l0 127.968506l-54.2677 0z" fill-rule="evenodd"/><path fill="#fff3c4" d="m709.68036 268.10486l82.92914 -124.15747l24.661377 12.346466l-82.92914 124.15747z" fill-rule="evenodd"/><path fill="#fff3c4" d="m731.29865 268.10486l-82.92914 -124.15747l-24.661377 12.346466l82.92914 124.15747z" fill-rule="evenodd"/></g></svg>