<svg version="1.1" viewBox="0.0 0.0 718.6325459317585 516.4330708661417" fill="none" stroke="none" stroke-linecap="square" stroke-miterlimit="10" xmlns:xlink="http://www.w3.org/1999/xlink" xmlns="http://www.w3.org/2000/svg"><clipPath id="p.0"><path d="m0 0l718.63257 0l0 516.43304l-718.63257 0l0 -516.43304z" clip-rule="nonzero"/></clipPath><g clip-path="url(#p.0)"><path fill="#000000" fill-opacity="0.0" d="m0 0l718.63257 0l0 516.43304l-718.63257 0z" fill-rule="evenodd"/><path fill="#c2ffaa" d="m31.514435 35.52231l58.740158 0l0 215.87402l-58.740158 0z" fill-rule="evenodd"/><path fill="#c2ffaa" d="m31.514435 225.4252l135.2441 0l0 25.984253l-135.2441 0z" fill-rule="evenodd"/><path fill="#c2ffaa" d="m214.1916 35.52231l58.740158 0l0 215.87402l-58.740158 0z" fill-rule="evenodd"/><path fill="#c2ffaa" d="m175.93964 225.4252l135.24408 0l0 25.984253l-135.24408 0z" fill-rule="evenodd"/><path fill="#c2ffaa" d="m175.93964 35.52231l135.24408 0l0 25.984253l-135.24408 0z" fill-rule="evenodd"/><path fill="#c2ffaa" d="m320.36484 35.52231l58.740143 0l0 215.87402l-58.740143 0z" fill-rule="evenodd"/><path fill="#c2ffaa" d="m372.46463 35.522312l84.53543 200.66142l-23.937012 10.078735l-84.53543 -200.6614z" fill-rule="evenodd"/><path fill="#c2ffaa" d="m426.53806 35.52231l58.740173 0l0 215.87402l-58.740173 0z" fill-rule="evenodd"/><path fill="#c2ffaa" d="m494.34384 32.95538l58.740143 0l0 215.87401l-58.740143 0z" fill-rule="evenodd"/><path fill="#c2ffaa" d="m514.62463 165.05238l120.97638 -144.8819l19.937012 16.661419l-120.97638 144.8819z" fill-rule="evenodd"/><path fill="#c2ffaa" d="m553.084 127.42247l115.4646 138.26772l19.937012 -16.661407l-115.4646 -138.26773z" fill-rule="evenodd"/><path fill="#ffc4d8" d="m93.02756 278.3176l58.740158 0l0 215.874l-58.740158 0z" fill-rule="evenodd"/><path fill="#ffc4d8" d="m28.129921 278.3176l188.53543 0l0 25.984253l-188.53543 0z" fill-rule="evenodd"/><path fill="#ffc4d8" d="m288.82272 373.30856l49.480316 0l0 120.8819l-49.480316 0z" fill-rule="evenodd"/><path fill="#ffc4d8" d="m304.10892 395.58713l75.653564 -117.25986l22.48819 11.653534l-75.653564 117.25986z" fill-rule="evenodd"/><path fill="#ffc4d8" d="m323.8281 395.58713l-75.65355 -117.25986l-22.48819 11.653534l75.65355 117.25986z" fill-rule="evenodd"/><path fill="#ffc4d8" d="m410.85696 278.3176l58.740143 0l0 215.874l-58.740143 0z" fill-rule="evenodd"/><path fill="#ffc4d8" d="m410.85696 278.3176l135.24411 0l0 25.984253l-135.24411 0z" fill-rule="evenodd"/><path fill="#ffc4d8" d="m546.1011 278.3281l0 135.24408l-25.984253 0l0 -135.24408z" fill-rule="evenodd"/><path fill="#ffc4d8" d="m410.85696 387.58792l135.24411 0l0 25.984253l-135.24411 0z" fill-rule="evenodd"/><path fill="#ffc4d8" d="m556.626 278.3176l58.740173 0l0 215.874l-58.740173 0z" fill-rule="evenodd"/><path fill="#ffc4d8" d="m556.626 278.3176l135.24408 0l0 25.984253l-135.24408 0z" fill-rule="evenodd"/><path fill="#ffc4d8" d="m556.626 468.20734l135.24408 0l0 25.984253l-135.24408 0z" fill-rule="evenodd"/><path fill="#ffc4d8" d="m556.626 361.60367l135.24408 0l0 25.984253l-135.24408 0z" fill-rule="evenodd"/></g></svg>