<svg version="1.1" viewBox="0.0 0.0 718.6325459317585 516.4330708661417" fill="none" stroke="none" stroke-linecap="square" stroke-miterlimit="10" xmlns:xlink="http://www.w3.org/1999/xlink" xmlns="http://www.w3.org/2000/svg"><clipPath id="p.0"><path d="m0 0l718.63257 0l0 516.43304l-718.63257 0l0 -516.43304z" clip-rule="nonzero"/></clipPath><g clip-path="url(#p.0)"><path fill="#000000" fill-opacity="0.0" d="m0 0l718.63257 0l0 516.43304l-718.63257 0z" fill-rule="evenodd"/><path fill="#c2ffaa" d="m8.135171 143.87016l57.41732 0l0 228.69292l-57.41732 0z" fill-rule="evenodd"/><path fill="#c2ffaa" d="m8.135171 143.87016l132.22046 0l0 27.527557l-132.22046 0z" fill-rule="evenodd"/><path fill="#c2ffaa" d="m140.383 143.88129l0 143.27557l-25.41732 0l0 -143.27557z" fill-rule="evenodd"/><path fill="#c2ffaa" d="m8.135171 259.61554l132.22046 0l0 27.527557l-132.22046 0z" fill-rule="evenodd"/><path fill="#c2ffaa" d="m150.67476 143.87016l57.417328 0l0 228.69292l-57.417328 0z" fill-rule="evenodd"/><path fill="#c2ffaa" d="m150.67476 143.87016l132.22047 0l0 27.527557l-132.22047 0z" fill-rule="evenodd"/><path fill="#c2ffaa" d="m150.67476 345.01224l132.22047 0l0 27.527557l-132.22047 0z" fill-rule="evenodd"/><path fill="#c2ffaa" d="m150.67476 232.09154l132.22047 0l0 27.527573l-132.22047 0z" fill-rule="evenodd"/><path fill="#c2ffaa" d="m293.18652 143.87016l57.417328 0l0 228.69292l-57.417328 0z" fill-rule="evenodd"/><path fill="#c2ffaa" d="m293.18652 143.87016l132.22049 0l0 27.527557l-132.22049 0z" fill-rule="evenodd"/><path fill="#c2ffaa" d="m293.18652 345.01224l132.22049 0l0 27.527557l-132.22049 0z" fill-rule="evenodd"/><path fill="#c2ffaa" d="m293.18652 232.09154l132.22049 0l0 27.527573l-132.22049 0z" fill-rule="evenodd"/><path fill="#c2ffaa" d="m435.69812 143.87016l57.417328 0l0 228.69292l-57.417328 0z" fill-rule="evenodd"/><path fill="#c2ffaa" d="m435.69812 143.87016l132.22046 0l0 27.527557l-132.22046 0z" fill-rule="evenodd"/><path fill="#c2ffaa" d="m567.9459 143.88129l0 143.27557l-25.417297 0l0 -143.27557z" fill-rule="evenodd"/><path fill="#c2ffaa" d="m435.69812 259.61554l132.22046 0l0 27.527557l-132.22046 0z" fill-rule="evenodd"/><path fill="#c2ffaa" d="m578.2089 143.87042l57.417297 0l0 143.2756l-57.417297 0z" fill-rule="evenodd"/><path fill="#c2ffaa" d="m578.2094 143.87016l132.22046 0l0 27.527557l-132.22046 0z" fill-rule="evenodd"/><path fill="#c2ffaa" d="m710.4974 260.55945l0 111.968506l-25.417297 0l0 -111.968506z" fill-rule="evenodd"/><path fill="#c2ffaa" d="m578.2094 259.61554l132.22046 0l0 27.527557l-132.22046 0z" fill-rule="evenodd"/><path fill="#c2ffaa" d="m578.2094 345.01294l132.22046 0l0 27.527557l-132.22046 0z" fill-rule="evenodd"/></g></svg>